<svg
  xmlns="http://www.w3.org/2000/svg"
  width="33"
  height="32.305"
  viewBox="0 0 33 32.305"
>
  <defs>
    <style>
      .a {
        fill: #cdcdcd;
        fill-rule: evenodd;
      }
    </style>
  </defs>
  <g transform="translate(311.018 172)">
    <g transform="translate(-311.018 -172)">
      <g transform="translate(0 0)">
        <path
          class="a"
          d="M16.561,0a16.561,16.561,0,0,0-5.236,32.278c.834.152,1.128-.366,1.128-.8V28.659c-4.626,1.006-5.6-2.226-5.6-2.226A4.432,4.432,0,0,0,5.012,24c-1.494-1.017.122-1.017.122-1.017a3.487,3.487,0,0,1,2.531,1.708,3.538,3.538,0,0,0,4.819,1.383A3.518,3.518,0,0,1,13.5,23.86c-3.68-.417-7.543-1.84-7.543-8.133a6.4,6.4,0,0,1,1.7-4.443A6.039,6.039,0,0,1,7.818,6.9s1.393-.447,4.554,1.7a15.666,15.666,0,0,1,8.3,0c3.162-2.145,4.544-1.7,4.544-1.7a6.008,6.008,0,0,1,.2,4.351,6.4,6.4,0,0,1,1.7,4.443c0,6.364-3.873,7.757-7.564,8.133a3.914,3.914,0,0,1,1.128,3.05c0,2.216,0,4.005,0,4.544s.295.956,1.139.793A16.561,16.561,0,0,0,16.561,0Z"
          transform="translate(0.018 0)"
        />
      </g>
    </g>
  </g>
</svg>
