<svg
  xmlns="http://www.w3.org/2000/svg"
  width="32"
  height="32"
  viewBox="0 0 32 32"
>
  <defs>
    <style>
      .a {
        fill: #cdcdcd;
        fill-rule: evenodd;
      }
    </style>
  </defs>
  <path
    class="a"
    d="M28.09,0A3.911,3.911,0,0,1,32,3.91V28.09A3.912,3.912,0,0,1,28.09,32H3.91A3.912,3.912,0,0,1,0,28.09V3.91A3.911,3.911,0,0,1,3.91,0H28.09ZM10.029,26.455V12.348H5.339V26.455Zm16.909,0v-8.09c0-4.333-2.314-6.349-5.4-6.349a4.658,4.658,0,0,0-4.226,2.329v-2H12.624c.062,1.324,0,14.107,0,14.107h4.689V18.576a3.206,3.206,0,0,1,.155-1.145,2.566,2.566,0,0,1,2.406-1.715c1.7,0,2.375,1.294,2.375,3.19v7.548h4.689ZM7.715,5.545a2.444,2.444,0,1,0-.062,4.875h.03a2.445,2.445,0,1,0,.032-4.875Z"
    transform="translate(0 0)"
  />
</svg>
