<svg xmlns="http://www.w3.org/2000/svg" viewBox="0 0 497.04 432.59">
  <defs>
    <style>
      .cls-1 {
        fill: #fff;
      }
    </style>
  </defs>
  <g id="Hexagon">
    <path
      class="cls-1"
      d="M370.5-.3H130a8,8,0,0,0-6.92,4L2.79,212a8,8,0,0,0,0,8L123.06,428.29a8,8,0,0,0,6.92,4H370.5a8,8,0,0,0,6.93-4L497.69,220a8,8,0,0,0,0-8L377.43,3.7A8,8,0,0,0,370.5-.3Z"
      transform="translate(-1.72 0.3)"
    />
  </g>
  <g id="Text">
    <path
      d="M114.5,348.25q-5.69-6.94-5.69-18.34v-64.3h-20V249.79h20v-25.3h17.92v25.3h30.78v15.82H126.73V331q0,4.63,2.32,6.53c1.55,1.27,3.93,1.9,7.17,1.9h21.29v15.81H131Q120.2,355.21,114.5,348.25Z"
      transform="translate(-1.72 0.3)"
    />
    <path
      d="M215.28,249.79v5.06q6.54-5.06,16.87-5.06h9.7q17.09,0,25.41,8t8.32,25.73v71.68H257.66v-75.9c0-4.22-1.23-7.55-3.69-10s-5.8-3.68-10-3.68H230q-7,0-10.33,3.68a11.57,11.57,0,0,0-3.37,7.91v78H198.42V249.79Z"
      transform="translate(-1.72 0.3)"
    />
    <path
      d="M351.27,302.29l-11.38,52.92H320.28l-19-105.42h17.92l12,83.71,13.91-64.73h13.71l12.65,64.73,12-83.71H400.4L381.64,355.21H361.39Z"
      transform="translate(-1.72 0.3)"
    />
  </g>
  <g id="Icon">
    <g id="Brackets">
      <path
        d="M173.5,66.5V86.61l-67.75,29.73,67.75,29.94v20.54l-83-38.24v-23Z"
        transform="translate(-1.72 0.3)"
      />
      <path
        d="M395.57,116.34,326.5,86.61V66.5l83.05,39.13v23L326.5,166.82V146.28Z"
        transform="translate(-1.72 0.3)"
      />
    </g>
    <g id="Pencil">
      <rect
        x="231"
        y="34.04"
        width="40.87"
        height="138.52"
        rx="1.07"
        transform="translate(450.65 286.66) rotate(-160)"
      />
      <path
        d="M209.15,217.52,205.37,172a1,1,0,0,1,1.33-1l35.93,13.07a1,1,0,0,1,.37,1.64l-32.15,32.44A1,1,0,0,1,209.15,217.52Z"
        transform="translate(-1.72 0.3)"
      />
    </g>
  </g>
</svg>
