<svg
  xmlns="http://www.w3.org/2000/svg"
  viewBox="0 0 497.04 432.59"
  class="nav-logo"
>
  <defs>
    <style>
      .svg-color-hover {
        fill: #cdcdcd;
      }
    </style>
  </defs>
  <g id="Hexagon">
    <path
      class="svg-color-hover"
      d="M370.5-.3H130a8,8,0,0,0-6.92,4L2.79,212a8,8,0,0,0,0,8L123.06,428.29a8,8,0,0,0,6.92,4H370.5a8,8,0,0,0,6.93-4L497.69,220a8,8,0,0,0,0-8L377.43,3.7A8,8,0,0,0,370.5-.3Z"
      transform="translate(-1.72 0.3)"
    />
  </g>
  <g id="Text">
    <path
      d="M127.12,241.82H169v18.43h-41.9v53.22a30.85,30.85,0,0,0,1.5,10.35,15.15,15.15,0,0,0,10.55,10,30.56,30.56,0,0,0,8.13,1q3.19,0,6.59-.31c2.27-.21,4.46-.48,6.59-.82s4-.6,5.82-1l4.58-1,2.67,17a29.15,29.15,0,0,1-6.43,2.83,69.66,69.66,0,0,1-8.08,2c-2.88.55-5.89,1-9,1.29s-6.23.47-9.32.47a49.5,49.5,0,0,1-15.49-2.32,30.83,30.83,0,0,1-12.1-7.26,32.62,32.62,0,0,1-7.87-12.46A52.6,52.6,0,0,1,102.42,315V260.25h-27V241.82h27V214.64h24.7Z"
      transform="translate(-1.72 0.3)"
    />
    <path
      d="M197.91,241.82h22.24l1.54,15.86a45.83,45.83,0,0,1,5-5.92,43.33,43.33,0,0,1,5.82-4.89,40.13,40.13,0,0,1,10.81-5.25,40.63,40.63,0,0,1,12.35-1.86,47.52,47.52,0,0,1,15.65,2.47,29.93,29.93,0,0,1,12.15,7.83,36.42,36.42,0,0,1,7.82,13.64,63.14,63.14,0,0,1,2.78,20v69.49h-24.6V284.13a36.91,36.91,0,0,0-1.55-11.53,16.46,16.46,0,0,0-11.73-11.37A35.92,35.92,0,0,0,246.5,260a29,29,0,0,0-8.44,1.19,26.1,26.1,0,0,0-7.11,3.34,25.47,25.47,0,0,0-4.63,4,31.18,31.18,0,0,0-3.81,5.15v79.47h-24.6Z"
      transform="translate(-1.72 0.3)"
    />
    <path
      d="M305.86,241.82h22.23l10.3,68.26L340.14,323l2.26-12.87,14.52-68.26h16.16l14.52,68.05L390,323.36l1.95-13.59,10-67.95h22.34L402.73,353.21h-20.9L367.42,290l-2.57-13.79L362.38,290l-14.11,63.21h-20.9Z"
      transform="translate(-1.72 0.3)"
    />
  </g>
  <g id="Icon">
    <g id="Brackets">
      <path
        d="M173.5,66.5V86.61l-67.75,29.73,67.75,29.94v20.54l-83-38.24v-23Z"
        transform="translate(-1.72 0.3)"
      />
      <path
        d="M395.57,116.34,326.5,86.61V66.5l83.05,39.13v23L326.5,166.82V146.28Z"
        transform="translate(-1.72 0.3)"
      />
    </g>
    <g id="Pencil">
      <rect
        x="231"
        y="34.04"
        width="40.87"
        height="138.52"
        rx="1.07"
        transform="translate(450.65 286.66) rotate(-160)"
      />
      <path
        d="M209.15,217.52,205.37,172a1,1,0,0,1,1.33-1l35.93,13.07a1,1,0,0,1,.37,1.64l-32.15,32.44A1,1,0,0,1,209.15,217.52Z"
        transform="translate(-1.72 0.3)"
      />
    </g>
  </g>
</svg>
